<?xml version="1.0" standalone="no"?>
<!DOCTYPE svg PUBLIC "-//W3C//DTD SVG 20010904//EN"
 "http://www.w3.org/TR/2001/REC-SVG-20010904/DTD/svg10.dtd">
<svg version="1.0" xmlns="http://www.w3.org/2000/svg"
 width="512.000000pt" height="512.000000pt" viewBox="0 0 512.000000 512.000000"
 preserveAspectRatio="xMidYMid meet">

<g transform="translate(0.000000,512.000000) scale(0.100000,-0.100000)"
fill="#000000" stroke="none">
<path d="M2320 5109 c-311 -30 -611 -116 -899 -260 -261 -130 -469 -279 -671
-480 -96 -97 -270 -303 -270 -321 0 -4 570 -8 1266 -8 l1265 0 -3 -37 -3 -38
-76 -6 c-143 -12 -238 -44 -278 -95 -12 -15 -29 -50 -38 -78 -17 -47 -18 -137
-21 -1151 -3 -1152 -2 -1205 40 -1293 36 -76 121 -112 301 -128 l77 -7 0 -38
0 -39 -630 0 -630 0 0 38 0 38 103 12 c196 22 256 57 293 168 18 57 19 109 22
1277 l2 1217 -675 0 -675 0 0 -1142 c0 -629 4 -1181 9 -1228 11 -104 35 -176
69 -212 37 -40 118 -67 238 -80 l104 -11 0 -39 0 -38 -401 0 -401 0 20 -31
c46 -73 192 -246 289 -344 480 -481 1137 -755 1813 -755 800 0 1558 379 2044
1020 69 91 186 272 186 287 0 4 -15 -7 -32 -24 -49 -45 -121 -91 -204 -129
-213 -99 -493 -109 -714 -28 -281 105 -520 413 -585 757 -19 101 -19 300 0
409 38 220 155 457 299 603 161 164 387 256 631 257 184 0 340 -39 483 -124
77 -45 237 -206 297 -298 52 -79 119 -229 130 -292 14 -77 25 -34 25 100 0
419 -87 792 -271 1161 -253 509 -641 897 -1150 1150 -431 215 -910 305 -1379
260z"/>
<path d="M337 3829 c-35 -53 -157 -320 -191 -418 -228 -650 -187 -1353 115
-1971 76 -157 83 -161 113 -72 34 99 37 213 34 1282 -3 969 -5 1060 -21 1114
-26 87 -31 94 -50 65z"/>
<path d="M4051 3009 c-239 -40 -385 -259 -411 -617 -36 -505 148 -994 423
-1123 182 -84 370 -49 505 95 68 74 110 162 139 296 25 119 26 533 0 661 -95
478 -344 739 -656 688z"/>
</g>
</svg>
